<svg width="34" height="34" viewBox="0 0 34 34" fill="none" xmlns="http://www.w3.org/2000/svg">
<g clip-path="url(#clip0_150_2419)">
<path d="M17 13.9092V20.4928H26.1491C25.7473 22.6101 24.5417 24.4029 22.7336 25.6083L28.2508 29.8893C31.4653 26.9221 33.3199 22.5639 33.3199 17.3866C33.3199 16.1812 33.2118 15.022 33.0108 13.9094L17 13.9092Z" fill="#4285F4"/>
<path d="M7.47318 20.2358L6.22884 21.1884L1.82422 24.6192C4.62148 30.1674 10.3547 34.0001 17.0001 34.0001C21.59 34.0001 25.4381 32.4856 28.2509 29.8893L22.7337 25.6083C21.2191 26.6283 19.2873 27.2466 17.0001 27.2466C12.5801 27.2466 8.82478 24.2639 7.48013 20.2457L7.47318 20.2358Z" fill="#34A853"/>
<path d="M1.8235 9.38086C0.664476 11.668 0 14.249 0 16.9998C0 19.7507 0.664476 22.3317 1.8235 24.6188C1.8235 24.6342 7.47996 20.2297 7.47996 20.2297C7.13997 19.2098 6.939 18.128 6.939 16.9997C6.939 15.8713 7.13997 14.7896 7.47996 13.7696L1.8235 9.38086Z" fill="#FBBC05"/>
<path d="M17.0004 6.76909C19.5041 6.76909 21.7295 7.63452 23.5068 9.30363L28.3749 4.43551C25.4231 1.68465 21.5905 0 17.0004 0C10.355 0 4.62148 3.81727 1.82422 9.38092L7.48051 13.77C8.82497 9.75179 12.5805 6.76909 17.0004 6.76909Z" fill="#EA4335"/>
</g>
<defs>
<clipPath id="clip0_150_2419">
<rect width="34" height="34" fill="white"/>
</clipPath>
</defs>
</svg>
