<svg width="224" height="50" viewBox="0 0 224 50" fill="none" xmlns="http://www.w3.org/2000/svg">
<g clip-path="url(#clip0_148_2264)">
<path d="M7.54507 40.1141L2.1811 36.5646L1.80317 30.0994L8.08693 23.7627C10.9784 20.847 12.9045 17.5087 13.9518 13.5368L12.2351 13.0317C11.2288 16.7511 9.51216 19.7495 6.83018 22.4954L0.25044 29.0846C0.0819622 29.2545 0 29.5071 0 29.7596L0.418918 37.1111C0.418918 37.4049 0.587395 37.6621 0.796854 37.8274L6.9167 41.8406C7.04419 41.9233 7.20812 41.9692 7.41758 41.9692H7.62703L11.4383 40.9131L10.9784 39.182L7.54052 40.1141H7.54507Z" fill="#1A6AFF"/>
<path d="M40.94 26.2927L39.6423 27.56L42.1558 30.0947L41.8188 36.5599L36.4139 40.1094L27.8671 37.7859C23.9283 36.7298 20.0715 36.7298 16.1328 37.7859L16.5927 39.517C20.281 38.5436 23.7143 38.5436 27.4026 39.517L36.3683 41.9231C36.4093 41.9645 36.4958 41.9645 36.5778 41.9645C36.7463 41.9645 36.9148 41.9231 37.0787 41.8359L43.153 37.8227C43.4034 37.6528 43.5309 37.4002 43.5719 37.1063L43.9498 29.7549C43.9908 29.5023 43.9089 29.2911 43.6994 29.0799L40.9355 26.2881L40.94 26.2927Z" fill="#1A6AFF"/>
<path d="M16.2601 4.87189L22.002 1.9561L27.703 4.87189L30.007 13.4907C31.0953 17.4626 32.9804 20.8421 35.8719 23.7579L37.1286 22.4493C34.4466 19.7447 32.73 16.7463 31.7237 13.0269L29.3331 3.98567C29.2921 3.73313 29.1236 3.56323 28.8732 3.43466L22.3754 0.0964276C22.125 -0.0321425 21.829 -0.0321425 21.5786 0.0964276L15.0854 3.43466C14.8759 3.56323 14.7074 3.73313 14.6255 3.98567L13.6191 7.829L15.3358 8.3341L16.2556 4.8673L16.2601 4.87189Z" fill="#1A6AFF"/>
<path d="M36.4594 9.89972L41.8234 13.4492L42.2013 19.9557L35.9176 26.2511C33.0261 29.1669 31.1 32.5464 30.0527 36.5183L31.7694 36.9821C32.7757 33.2628 34.4924 30.2643 37.1743 27.5184L43.7541 20.9246C43.9226 20.7547 44.0045 20.5022 44.0045 20.2496L43.5856 12.8982C43.5856 12.6043 43.4171 12.3471 43.2077 12.1818L37.0878 8.16862C36.8784 8.04005 36.6279 7.99872 36.3775 8.08137L32.5662 9.09616L33.0261 10.8273L36.464 9.89972H36.4594Z" fill="#1A6AFF"/>
<path d="M27.7395 45.1419L21.9976 48.099L16.2557 45.1419L13.9517 36.5231C12.9044 32.5512 11.0193 29.1716 8.12781 26.2559L6.83008 27.5645C9.51206 30.2691 11.2742 33.2675 12.235 36.9869L14.6256 46.0281C14.7075 46.2806 14.876 46.4919 15.0855 46.5791L21.5787 49.9173C21.7062 49.9587 21.8701 50.0046 21.9976 50.0046C22.1251 50.0046 22.289 49.9633 22.4165 49.9173L28.9098 46.5791C29.1192 46.4965 29.2877 46.2852 29.3697 46.0281L30.376 42.1848L28.6593 41.721L27.7395 45.1465V45.1419Z" fill="#1A6AFF"/>
<path d="M3.05992 23.7581L4.35766 22.4494L1.84415 19.9561L2.1811 13.4495L7.54507 9.90003L16.1374 12.2235C20.0762 13.3209 23.933 13.3209 27.8717 12.2235L27.4118 10.4924C23.7235 11.5072 20.2902 11.5072 16.6019 10.4924L7.63614 8.08169C7.42668 7.99903 7.13526 8.04036 6.9258 8.21025L0.837836 12.2235C0.587396 12.3934 0.418918 12.6459 0.418918 12.8985L0 20.2499C0 20.5025 0.0819622 20.755 0.291421 20.9249L3.05537 23.7581H3.05992Z" fill="#1A6AFF"/>
</g>
<path d="M67.524 7.344V27H62.736V7.344H67.524ZM81.0178 27L76.9298 19.58H75.7818V27H70.9938V7.344H79.0298C80.5791 7.344 81.8951 7.61467 82.9778 8.156C84.0791 8.69733 84.9005 9.444 85.4418 10.396C85.9831 11.3293 86.2538 12.3747 86.2538 13.532C86.2538 14.8387 85.8805 16.0053 85.1338 17.032C84.4058 18.0587 83.3231 18.7867 81.8858 19.216L86.4218 27H81.0178ZM75.7818 16.192H78.7498C79.6271 16.192 80.2805 15.9773 80.7098 15.548C81.1578 15.1187 81.3818 14.512 81.3818 13.728C81.3818 12.9813 81.1578 12.3933 80.7098 11.964C80.2805 11.5347 79.6271 11.32 78.7498 11.32H75.7818V16.192ZM94.0474 7.344V27H89.2594V7.344H94.0474ZM104.629 27.196C103.192 27.196 101.904 26.9627 100.765 26.496C99.6266 26.0293 98.7119 25.3387 98.0213 24.424C97.3493 23.5093 96.9946 22.408 96.9573 21.12H102.053C102.128 21.848 102.38 22.408 102.809 22.8C103.239 23.1733 103.799 23.36 104.489 23.36C105.199 23.36 105.759 23.2013 106.169 22.884C106.58 22.548 106.785 22.0907 106.785 21.512C106.785 21.0267 106.617 20.6253 106.281 20.308C105.964 19.9907 105.563 19.7293 105.077 19.524C104.611 19.3187 103.939 19.0853 103.061 18.824C101.792 18.432 100.756 18.04 99.9533 17.648C99.1506 17.256 98.4599 16.6773 97.8813 15.912C97.3026 15.1467 97.0133 14.148 97.0133 12.916C97.0133 11.0867 97.6759 9.65867 99.0013 8.632C100.327 7.58667 102.053 7.064 104.181 7.064C106.347 7.064 108.092 7.58667 109.417 8.632C110.743 9.65867 111.452 11.096 111.545 12.944H106.365C106.328 12.3093 106.095 11.8147 105.665 11.46C105.236 11.0867 104.685 10.9 104.013 10.9C103.435 10.9 102.968 11.0587 102.613 11.376C102.259 11.6747 102.081 12.1133 102.081 12.692C102.081 13.3267 102.38 13.8213 102.977 14.176C103.575 14.5307 104.508 14.9133 105.777 15.324C107.047 15.7533 108.073 16.164 108.857 16.556C109.66 16.948 110.351 17.5173 110.929 18.264C111.508 19.0107 111.797 19.972 111.797 21.148C111.797 22.268 111.508 23.2853 110.929 24.2C110.369 25.1147 109.548 25.8427 108.465 26.384C107.383 26.9253 106.104 27.196 104.629 27.196ZM132.913 23.528H125.577L124.401 27H119.389L126.501 7.344H132.045L139.157 27H134.089L132.913 23.528ZM131.681 19.832L129.245 12.636L126.837 19.832H131.681ZM146.11 7.344V27H141.322V7.344H146.11Z" fill="#0F1A2E"/>
<path d="M67.78 34.636L65.056 39.844V43H63.964V39.844L61.228 34.636H62.44L64.504 38.872L66.568 34.636H67.78ZM71.7998 43.108C71.1838 43.108 70.6238 42.968 70.1198 42.688C69.6238 42.408 69.2318 42.012 68.9438 41.5C68.6638 40.98 68.5238 40.38 68.5238 39.7C68.5238 39.028 68.6678 38.436 68.9558 37.924C69.2518 37.404 69.6518 37.008 70.1558 36.736C70.6598 36.456 71.2238 36.316 71.8478 36.316C72.4718 36.316 73.0358 36.456 73.5398 36.736C74.0438 37.008 74.4398 37.4 74.7278 37.912C75.0238 38.424 75.1718 39.02 75.1718 39.7C75.1718 40.38 75.0198 40.98 74.7158 41.5C74.4198 42.012 74.0158 42.408 73.5038 42.688C72.9918 42.968 72.4238 43.108 71.7998 43.108ZM71.7998 42.148C72.1918 42.148 72.5598 42.056 72.9038 41.872C73.2478 41.688 73.5238 41.412 73.7318 41.044C73.9478 40.676 74.0558 40.228 74.0558 39.7C74.0558 39.172 73.9518 38.724 73.7438 38.356C73.5358 37.988 73.2638 37.716 72.9278 37.54C72.5918 37.356 72.2278 37.264 71.8358 37.264C71.4358 37.264 71.0678 37.356 70.7318 37.54C70.4038 37.716 70.1398 37.988 69.9398 38.356C69.7398 38.724 69.6398 39.172 69.6398 39.7C69.6398 40.236 69.7358 40.688 69.9278 41.056C70.1278 41.424 70.3918 41.7 70.7198 41.884C71.0478 42.06 71.4078 42.148 71.7998 42.148ZM82.4396 36.424V43H81.3476V42.028C81.1396 42.364 80.8476 42.628 80.4716 42.82C80.1036 43.004 79.6956 43.096 79.2476 43.096C78.7356 43.096 78.2756 42.992 77.8676 42.784C77.4596 42.568 77.1356 42.248 76.8956 41.824C76.6636 41.4 76.5476 40.884 76.5476 40.276V36.424H77.6276V40.132C77.6276 40.78 77.7916 41.28 78.1196 41.632C78.4476 41.976 78.8956 42.148 79.4636 42.148C80.0476 42.148 80.5076 41.968 80.8436 41.608C81.1796 41.248 81.3476 40.724 81.3476 40.036V36.424H82.4396ZM85.3754 37.492C85.5674 37.116 85.8394 36.824 86.1914 36.616C86.5514 36.408 86.9874 36.304 87.4994 36.304V37.432H87.2114C85.9874 37.432 85.3754 38.096 85.3754 39.424V43H84.2834V36.424H85.3754V37.492ZM94.6112 43.084C94.0592 43.084 93.5632 42.988 93.1232 42.796C92.6912 42.596 92.3512 42.324 92.1032 41.98C91.8552 41.628 91.7272 41.224 91.7192 40.768H92.8832C92.9232 41.16 93.0832 41.492 93.3632 41.764C93.6512 42.028 94.0672 42.16 94.6112 42.16C95.1312 42.16 95.5392 42.032 95.8352 41.776C96.1392 41.512 96.2912 41.176 96.2912 40.768C96.2912 40.448 96.2032 40.188 96.0272 39.988C95.8512 39.788 95.6312 39.636 95.3672 39.532C95.1032 39.428 94.7472 39.316 94.2992 39.196C93.7472 39.052 93.3032 38.908 92.9672 38.764C92.6392 38.62 92.3552 38.396 92.1152 38.092C91.8832 37.78 91.7672 37.364 91.7672 36.844C91.7672 36.388 91.8832 35.984 92.1152 35.632C92.3472 35.28 92.6712 35.008 93.0872 34.816C93.5112 34.624 93.9952 34.528 94.5392 34.528C95.3232 34.528 95.9632 34.724 96.4592 35.116C96.9632 35.508 97.2472 36.028 97.3112 36.676H96.1112C96.0712 36.356 95.9032 36.076 95.6072 35.836C95.3112 35.588 94.9192 35.464 94.4312 35.464C93.9752 35.464 93.6032 35.584 93.3152 35.824C93.0272 36.056 92.8832 36.384 92.8832 36.808C92.8832 37.112 92.9672 37.36 93.1352 37.552C93.3112 37.744 93.5232 37.892 93.7712 37.996C94.0272 38.092 94.3832 38.204 94.8392 38.332C95.3912 38.484 95.8352 38.636 96.1712 38.788C96.5072 38.932 96.7952 39.16 97.0352 39.472C97.2752 39.776 97.3952 40.192 97.3952 40.72C97.3952 41.128 97.2872 41.512 97.0712 41.872C96.8552 42.232 96.5352 42.524 96.1112 42.748C95.6872 42.972 95.1872 43.084 94.6112 43.084ZM106.91 36.304C107.422 36.304 107.878 36.412 108.278 36.628C108.678 36.836 108.994 37.152 109.226 37.576C109.458 38 109.574 38.516 109.574 39.124V43H108.494V39.28C108.494 38.624 108.33 38.124 108.002 37.78C107.682 37.428 107.246 37.252 106.694 37.252C106.126 37.252 105.674 37.436 105.338 37.804C105.002 38.164 104.834 38.688 104.834 39.376V43H103.754V39.28C103.754 38.624 103.59 38.124 103.262 37.78C102.942 37.428 102.506 37.252 101.954 37.252C101.386 37.252 100.934 37.436 100.598 37.804C100.262 38.164 100.094 38.688 100.094 39.376V43H99.0021V36.424H100.094V37.372C100.31 37.028 100.598 36.764 100.958 36.58C101.326 36.396 101.73 36.304 102.17 36.304C102.722 36.304 103.21 36.428 103.634 36.676C104.058 36.924 104.374 37.288 104.582 37.768C104.766 37.304 105.07 36.944 105.494 36.688C105.918 36.432 106.39 36.304 106.91 36.304ZM110.957 39.688C110.957 39.016 111.093 38.428 111.365 37.924C111.637 37.412 112.009 37.016 112.481 36.736C112.961 36.456 113.493 36.316 114.077 36.316C114.653 36.316 115.153 36.44 115.577 36.688C116.001 36.936 116.317 37.248 116.525 37.624V36.424H117.629V43H116.525V41.776C116.309 42.16 115.985 42.48 115.553 42.736C115.129 42.984 114.633 43.108 114.065 43.108C113.481 43.108 112.953 42.964 112.481 42.676C112.009 42.388 111.637 41.984 111.365 41.464C111.093 40.944 110.957 40.352 110.957 39.688ZM116.525 39.7C116.525 39.204 116.425 38.772 116.225 38.404C116.025 38.036 115.753 37.756 115.409 37.564C115.073 37.364 114.701 37.264 114.293 37.264C113.885 37.264 113.513 37.36 113.177 37.552C112.841 37.744 112.573 38.024 112.373 38.392C112.173 38.76 112.073 39.192 112.073 39.688C112.073 40.192 112.173 40.632 112.373 41.008C112.573 41.376 112.841 41.66 113.177 41.86C113.513 42.052 113.885 42.148 114.293 42.148C114.701 42.148 115.073 42.052 115.409 41.86C115.753 41.66 116.025 41.376 116.225 41.008C116.425 40.632 116.525 40.196 116.525 39.7ZM120.567 37.492C120.759 37.116 121.031 36.824 121.383 36.616C121.743 36.408 122.179 36.304 122.691 36.304V37.432H122.403C121.179 37.432 120.567 38.096 120.567 39.424V43H119.475V36.424H120.567V37.492ZM125.283 37.324V41.2C125.283 41.52 125.351 41.748 125.487 41.884C125.623 42.012 125.859 42.076 126.195 42.076H126.999V43H126.015C125.407 43 124.951 42.86 124.647 42.58C124.343 42.3 124.191 41.84 124.191 41.2V37.324H123.339V36.424H124.191V34.768H125.283V36.424H126.999V37.324H125.283ZM137.966 34.636V43H136.874V39.208H132.614V43H131.522V34.636H132.614V38.308H136.874V34.636H137.966ZM142.698 43.108C142.082 43.108 141.522 42.968 141.018 42.688C140.522 42.408 140.13 42.012 139.842 41.5C139.562 40.98 139.422 40.38 139.422 39.7C139.422 39.028 139.566 38.436 139.854 37.924C140.15 37.404 140.55 37.008 141.054 36.736C141.558 36.456 142.122 36.316 142.746 36.316C143.37 36.316 143.934 36.456 144.438 36.736C144.942 37.008 145.338 37.4 145.626 37.912C145.922 38.424 146.07 39.02 146.07 39.7C146.07 40.38 145.918 40.98 145.614 41.5C145.318 42.012 144.914 42.408 144.402 42.688C143.89 42.968 143.322 43.108 142.698 43.108ZM142.698 42.148C143.09 42.148 143.458 42.056 143.802 41.872C144.146 41.688 144.422 41.412 144.63 41.044C144.846 40.676 144.954 40.228 144.954 39.7C144.954 39.172 144.85 38.724 144.642 38.356C144.434 37.988 144.162 37.716 143.826 37.54C143.49 37.356 143.126 37.264 142.734 37.264C142.334 37.264 141.966 37.356 141.63 37.54C141.302 37.716 141.038 37.988 140.838 38.356C140.638 38.724 140.538 39.172 140.538 39.7C140.538 40.236 140.634 40.688 140.826 41.056C141.026 41.424 141.29 41.7 141.618 41.884C141.946 42.06 142.306 42.148 142.698 42.148ZM155.414 36.304C155.926 36.304 156.382 36.412 156.782 36.628C157.182 36.836 157.498 37.152 157.73 37.576C157.962 38 158.078 38.516 158.078 39.124V43H156.998V39.28C156.998 38.624 156.834 38.124 156.506 37.78C156.186 37.428 155.75 37.252 155.198 37.252C154.63 37.252 154.178 37.436 153.842 37.804C153.506 38.164 153.338 38.688 153.338 39.376V43H152.258V39.28C152.258 38.624 152.094 38.124 151.766 37.78C151.446 37.428 151.01 37.252 150.458 37.252C149.89 37.252 149.438 37.436 149.102 37.804C148.766 38.164 148.598 38.688 148.598 39.376V43H147.506V36.424H148.598V37.372C148.814 37.028 149.102 36.764 149.462 36.58C149.83 36.396 150.234 36.304 150.674 36.304C151.226 36.304 151.714 36.428 152.138 36.676C152.562 36.924 152.878 37.288 153.086 37.768C153.27 37.304 153.574 36.944 153.998 36.688C154.422 36.432 154.894 36.304 155.414 36.304ZM165.869 39.46C165.869 39.668 165.857 39.888 165.833 40.12H160.577C160.617 40.768 160.837 41.276 161.237 41.644C161.645 42.004 162.137 42.184 162.713 42.184C163.185 42.184 163.577 42.076 163.889 41.86C164.209 41.636 164.433 41.34 164.561 40.972H165.737C165.561 41.604 165.209 42.12 164.681 42.52C164.153 42.912 163.497 43.108 162.713 43.108C162.089 43.108 161.529 42.968 161.033 42.688C160.545 42.408 160.161 42.012 159.881 41.5C159.601 40.98 159.461 40.38 159.461 39.7C159.461 39.02 159.597 38.424 159.869 37.912C160.141 37.4 160.521 37.008 161.009 36.736C161.505 36.456 162.073 36.316 162.713 36.316C163.337 36.316 163.889 36.452 164.369 36.724C164.849 36.996 165.217 37.372 165.473 37.852C165.737 38.324 165.869 38.86 165.869 39.46ZM164.741 39.232C164.741 38.816 164.649 38.46 164.465 38.164C164.281 37.86 164.029 37.632 163.709 37.48C163.397 37.32 163.049 37.24 162.665 37.24C162.113 37.24 161.641 37.416 161.249 37.768C160.865 38.12 160.645 38.608 160.589 39.232H164.741ZM168.439 41.488L167.095 44.716H166.363L167.239 41.488H168.439ZM175.541 43.084C174.989 43.084 174.493 42.988 174.053 42.796C173.621 42.596 173.281 42.324 173.033 41.98C172.785 41.628 172.657 41.224 172.649 40.768H173.813C173.853 41.16 174.013 41.492 174.293 41.764C174.581 42.028 174.997 42.16 175.541 42.16C176.061 42.16 176.469 42.032 176.765 41.776C177.069 41.512 177.221 41.176 177.221 40.768C177.221 40.448 177.133 40.188 176.957 39.988C176.781 39.788 176.561 39.636 176.297 39.532C176.033 39.428 175.677 39.316 175.229 39.196C174.677 39.052 174.233 38.908 173.897 38.764C173.569 38.62 173.285 38.396 173.045 38.092C172.813 37.78 172.697 37.364 172.697 36.844C172.697 36.388 172.813 35.984 173.045 35.632C173.277 35.28 173.601 35.008 174.017 34.816C174.441 34.624 174.925 34.528 175.469 34.528C176.253 34.528 176.893 34.724 177.389 35.116C177.893 35.508 178.177 36.028 178.241 36.676H177.041C177.001 36.356 176.833 36.076 176.537 35.836C176.241 35.588 175.849 35.464 175.361 35.464C174.905 35.464 174.533 35.584 174.245 35.824C173.957 36.056 173.813 36.384 173.813 36.808C173.813 37.112 173.897 37.36 174.065 37.552C174.241 37.744 174.453 37.892 174.701 37.996C174.957 38.092 175.313 38.204 175.769 38.332C176.321 38.484 176.765 38.636 177.101 38.788C177.437 38.932 177.725 39.16 177.965 39.472C178.205 39.776 178.325 40.192 178.325 40.72C178.325 41.128 178.217 41.512 178.001 41.872C177.785 42.232 177.465 42.524 177.041 42.748C176.617 42.972 176.117 43.084 175.541 43.084ZM187.84 36.304C188.352 36.304 188.808 36.412 189.208 36.628C189.608 36.836 189.924 37.152 190.156 37.576C190.388 38 190.504 38.516 190.504 39.124V43H189.424V39.28C189.424 38.624 189.26 38.124 188.932 37.78C188.612 37.428 188.176 37.252 187.624 37.252C187.056 37.252 186.604 37.436 186.268 37.804C185.932 38.164 185.764 38.688 185.764 39.376V43H184.684V39.28C184.684 38.624 184.52 38.124 184.192 37.78C183.872 37.428 183.436 37.252 182.884 37.252C182.316 37.252 181.864 37.436 181.528 37.804C181.192 38.164 181.024 38.688 181.024 39.376V43H179.932V36.424H181.024V37.372C181.24 37.028 181.528 36.764 181.888 36.58C182.256 36.396 182.66 36.304 183.1 36.304C183.652 36.304 184.14 36.428 184.564 36.676C184.988 36.924 185.304 37.288 185.512 37.768C185.696 37.304 186 36.944 186.424 36.688C186.848 36.432 187.32 36.304 187.84 36.304ZM191.887 39.688C191.887 39.016 192.023 38.428 192.295 37.924C192.567 37.412 192.939 37.016 193.411 36.736C193.891 36.456 194.423 36.316 195.007 36.316C195.583 36.316 196.083 36.44 196.507 36.688C196.931 36.936 197.247 37.248 197.455 37.624V36.424H198.559V43H197.455V41.776C197.239 42.16 196.915 42.48 196.483 42.736C196.059 42.984 195.563 43.108 194.995 43.108C194.411 43.108 193.883 42.964 193.411 42.676C192.939 42.388 192.567 41.984 192.295 41.464C192.023 40.944 191.887 40.352 191.887 39.688ZM197.455 39.7C197.455 39.204 197.355 38.772 197.155 38.404C196.955 38.036 196.683 37.756 196.339 37.564C196.003 37.364 195.631 37.264 195.223 37.264C194.815 37.264 194.443 37.36 194.107 37.552C193.771 37.744 193.503 38.024 193.303 38.392C193.103 38.76 193.003 39.192 193.003 39.688C193.003 40.192 193.103 40.632 193.303 41.008C193.503 41.376 193.771 41.66 194.107 41.86C194.443 42.052 194.815 42.148 195.223 42.148C195.631 42.148 196.003 42.052 196.339 41.86C196.683 41.66 196.955 41.376 197.155 41.008C197.355 40.632 197.455 40.196 197.455 39.7ZM201.496 37.492C201.688 37.116 201.96 36.824 202.312 36.616C202.672 36.408 203.108 36.304 203.62 36.304V37.432H203.332C202.108 37.432 201.496 38.096 201.496 39.424V43H200.404V36.424H201.496V37.492ZM206.213 37.324V41.2C206.213 41.52 206.281 41.748 206.417 41.884C206.553 42.012 206.789 42.076 207.125 42.076H207.929V43H206.945C206.337 43 205.881 42.86 205.577 42.58C205.273 42.3 205.121 41.84 205.121 41.2V37.324H204.269V36.424H205.121V34.768H206.213V36.424H207.929V37.324H206.213ZM215.252 39.46C215.252 39.668 215.24 39.888 215.216 40.12H209.96C210 40.768 210.22 41.276 210.62 41.644C211.028 42.004 211.52 42.184 212.096 42.184C212.568 42.184 212.96 42.076 213.272 41.86C213.592 41.636 213.816 41.34 213.944 40.972H215.12C214.944 41.604 214.592 42.12 214.064 42.52C213.536 42.912 212.88 43.108 212.096 43.108C211.472 43.108 210.912 42.968 210.416 42.688C209.928 42.408 209.544 42.012 209.264 41.5C208.984 40.98 208.844 40.38 208.844 39.7C208.844 39.02 208.98 38.424 209.252 37.912C209.524 37.4 209.904 37.008 210.392 36.736C210.888 36.456 211.456 36.316 212.096 36.316C212.72 36.316 213.272 36.452 213.752 36.724C214.232 36.996 214.6 37.372 214.856 37.852C215.12 38.324 215.252 38.86 215.252 39.46ZM214.124 39.232C214.124 38.816 214.032 38.46 213.848 38.164C213.664 37.86 213.412 37.632 213.092 37.48C212.78 37.32 212.432 37.24 212.048 37.24C211.496 37.24 211.024 37.416 210.632 37.768C210.248 38.12 210.028 38.608 209.972 39.232H214.124ZM217.786 37.492C217.978 37.116 218.25 36.824 218.602 36.616C218.962 36.408 219.398 36.304 219.91 36.304V37.432H219.622C218.398 37.432 217.786 38.096 217.786 39.424V43H216.694V36.424H217.786V37.492Z" fill="#3A3A3A"/>
<defs>
<clipPath id="clip0_148_2264">
<rect width="44" height="50" fill="white"/>
</clipPath>
</defs>
</svg>
